<svg width="62" height="62" viewBox="0 0 62 62" fill="none" xmlns="http://www.w3.org/2000/svg">
<g clip-path="url(#clip0_395_80)">
<rect width="62" height="62" rx="8" fill="white"/>
<path d="M15.5735 24.6748H27.1527C30.4238 24.6748 31.8526 26.418 31.8526 29.6891L31.8526 52.9537C31.8526 56.2247 29.2008 58.8764 25.9298 58.8764L16.9228 58.8764C13.6517 58.8764 11 56.2247 11 52.9537L11 29.6891C11 26.418 12.3024 24.6748 15.5735 24.6748Z" fill="#D9D9D9"/>
<path d="M16.1815 22.8578L15.5735 22.8578C15.0717 22.8578 14.665 23.2646 14.665 23.7663C14.665 24.2681 15.0717 24.6748 15.5735 24.6748H27.1527C27.6544 24.6748 28.0612 24.2681 28.0612 23.7663C28.0612 23.2646 27.6544 22.8578 27.1527 22.8578L26.202 22.8578H16.1815Z" fill="white"/>
<path d="M16.1815 22.8578H26.202L25.7864 15.6542L25.34 15.1707C24.6388 14.411 24.1486 13.481 23.9182 12.4731L23.2588 9.58801L19.2147 9.58802L18.4153 12.6967C18.1928 13.5619 17.7775 14.3655 17.2005 15.0475L16.6871 15.6542L16.1815 22.8578Z" fill="white"/>
<path d="M15.5735 24.6748H27.1527M15.5735 24.6748C12.3024 24.6748 11 26.418 11 29.6891L11 52.9537C11 56.2247 13.6517 58.8764 16.9228 58.8764L25.9298 58.8764C29.2008 58.8764 31.8526 56.2247 31.8526 52.9537L31.8526 29.6891C31.8526 26.418 30.4238 24.6748 27.1527 24.6748M15.5735 24.6748C15.0717 24.6748 14.665 24.2681 14.665 23.7663C14.665 23.2646 15.0717 22.8578 15.5735 22.8578M27.1527 24.6748C27.6544 24.6748 28.0612 24.2681 28.0612 23.7663C28.0612 23.2646 27.6544 22.8578 27.1527 22.8578M15.5735 22.8578H27.1527M15.5735 22.8578L16.1815 22.8578M27.1527 22.8578L26.202 22.8578M16.1815 22.8578L16.6871 15.6542L17.2005 15.0475C17.7775 14.3655 18.1928 13.5619 18.4153 12.6967L19.2147 9.58802L23.2588 9.58801L23.9182 12.4731C24.1486 13.481 24.6388 14.411 25.34 15.1707L25.7864 15.6542L26.202 22.8578M16.1815 22.8578H26.202" stroke="black"/>
<path d="M42.4494 6.66092C41.866 8.258 41.8502 10.0072 42.4045 11.6146L43.4458 14.6344L49.3299 14.6344L50.1822 11.5452C50.5662 10.1529 49.8837 8.68759 48.5707 8.08581L46.2929 7.04184L45.8933 7.65188C45.7159 7.92267 45.414 8.08581 45.0903 8.08581L44.6409 8.08581C44.399 8.08581 44.1582 8.05315 43.9251 7.98871C43.6151 7.90304 43.3441 7.71306 43.1579 7.45082L42.4996 6.52363L42.4494 6.66092Z" fill="white"/>
<path d="M43.4458 20.139L44.5436 58.5616C44.5664 59.3626 45.2223 60 46.0236 60H46.935C47.7391 60 48.3962 59.3584 48.4153 58.5546L49.3299 20.139H43.4458Z" fill="#F5F5F5"/>
<path d="M43.4458 14.6344L43.4458 20.139H49.3299L49.3299 14.6344L43.4458 14.6344Z" fill="#D9D9D9"/>
<path d="M46.2929 7.04184L44.9181 1L42.4996 6.52363L43.1579 7.45082C43.3441 7.71306 43.6151 7.90304 43.9251 7.98871C44.1582 8.05315 44.399 8.08581 44.6409 8.08581L45.0903 8.08581C45.414 8.08581 45.7159 7.92267 45.8933 7.65188L46.2929 7.04184Z" fill="#D9D9D9"/>
<path d="M43.4458 20.139L44.5436 58.5616C44.5664 59.3626 45.2223 60 46.0236 60H46.935C47.7391 60 48.3962 59.3584 48.4153 58.5546L49.3299 20.139M43.4458 20.139L43.4458 14.6344M43.4458 20.139H49.3299M49.3299 20.139L49.3299 14.6344M49.3299 14.6344L43.4458 14.6344M49.3299 14.6344L50.1822 11.5452C50.5662 10.1529 49.8837 8.68759 48.5707 8.08581L46.2929 7.04184M43.4458 14.6344L42.4045 11.6146C41.8502 10.0072 41.866 8.258 42.4494 6.66092L42.4996 6.52363M46.2929 7.04184L44.9181 1L42.4996 6.52363M46.2929 7.04184L45.8933 7.65188C45.7159 7.92267 45.414 8.08581 45.0903 8.08581L44.6409 8.08581C44.399 8.08581 44.1582 8.05315 43.9251 7.98871C43.6151 7.90304 43.3441 7.71306 43.1579 7.45082L42.4996 6.52363" stroke="black"/>
</g>
<defs>
<clipPath id="clip0_395_80">
<rect width="62" height="62" rx="8" fill="white"/>
</clipPath>
</defs>
</svg>
