<svg width="41" height="62" viewBox="0 0 41 62" fill="none" xmlns="http://www.w3.org/2000/svg">
<path d="M6.92277 25.7879H15.9298C19.2008 25.7879 21.8526 28.4396 21.8526 31.7107L21.8526 54.9752C21.8526 58.2463 19.2008 60.898 15.9298 60.898L6.92278 60.898C3.65172 60.898 1 58.2463 1 54.9752L1 31.7107C1 28.4396 3.65171 25.7879 6.92277 25.7879Z" fill="#D9D9D9"/>
<path d="M6.18155 23.8578L5.57349 23.8578C5.07174 23.8578 4.665 24.2646 4.665 24.7663C4.665 25.2681 5.07174 25.6748 5.57349 25.6748H17.1527C17.6544 25.6748 18.0612 25.2681 18.0612 24.7663C18.0612 24.2646 17.6544 23.8578 17.1527 23.8578L16.202 23.8578H6.18155Z" fill="white"/>
<path d="M5.57349 23.8578H17.1527M5.57349 23.8578C5.07174 23.8578 4.665 24.2646 4.665 24.7663C4.665 25.2681 5.07174 25.6748 5.57349 25.6748H17.1527C17.6544 25.6748 18.0612 25.2681 18.0612 24.7663C18.0612 24.2646 17.6544 23.8578 17.1527 23.8578M5.57349 23.8578L6.18155 23.8578M17.1527 23.8578L16.202 23.8578M6.18155 23.8578L6.68706 16.6542L7.20047 16.0475C7.7775 15.3655 8.1928 14.5619 8.41527 13.6967L9.21465 10.588L13.2588 10.588L13.9182 13.4731C14.1486 14.481 14.6388 15.411 15.34 16.1707L15.7864 16.6542L16.202 23.8578M6.18155 23.8578H16.202M6.92277 25.7879H15.9298C19.2008 25.7879 21.8526 28.4396 21.8526 31.7107L21.8526 54.9752C21.8526 58.2463 19.2008 60.898 15.9298 60.898L6.92278 60.898C3.65172 60.898 1 58.2463 1 54.9752L1 31.7107C1 28.4396 3.65171 25.7879 6.92277 25.7879Z" stroke="black"/>
<path d="M32.544 7.66092C31.9606 9.258 31.9447 11.0072 32.499 12.6146L33.5404 15.6344L39.4245 15.6344L40.2767 12.5452C40.6608 11.1529 39.9782 9.68759 38.6653 9.08581L36.3875 8.04184L35.9879 8.65188C35.8105 8.92267 35.5085 9.08581 35.1848 9.08581L34.7355 9.08581C34.4936 9.08581 34.2528 9.05315 34.0196 8.98871C33.7096 8.90304 33.4387 8.71306 33.2525 8.45082L32.5941 7.52363L32.544 7.66092Z" fill="white"/>
<path d="M33.5403 21.139L34.6381 59.5616C34.661 60.3626 35.3169 61 36.1182 61H37.0296C37.8336 61 38.4907 60.3584 38.5099 59.5546L39.4245 21.139H33.5403Z" fill="#F5F5F5"/>
<path d="M33.5404 15.6344L33.5403 21.139H39.4245L39.4245 15.6344L33.5404 15.6344Z" fill="#D9D9D9"/>
<path d="M36.3875 8.04184L35.0127 2L32.5941 7.52363L33.2525 8.45082C33.4387 8.71306 33.7096 8.90304 34.0196 8.98871C34.2528 9.05315 34.4936 9.08581 34.7355 9.08581L35.1848 9.08581C35.5085 9.08581 35.8105 8.92267 35.9879 8.65188L36.3875 8.04184Z" fill="#D9D9D9"/>
<path d="M33.5403 21.139L34.6381 59.5616C34.661 60.3626 35.3169 61 36.1182 61H37.0296C37.8336 61 38.4907 60.3584 38.5099 59.5546L39.4245 21.139M33.5403 21.139L33.5404 15.6344M33.5403 21.139H39.4245M39.4245 21.139L39.4245 15.6344M39.4245 15.6344L33.5404 15.6344M39.4245 15.6344L40.2767 12.5452C40.6608 11.1529 39.9782 9.68759 38.6653 9.08581L36.3875 8.04184M33.5404 15.6344L32.499 12.6146C31.9447 11.0072 31.9606 9.258 32.544 7.66092L32.5941 7.52363M36.3875 8.04184L35.0127 2L32.5941 7.52363M36.3875 8.04184L35.9879 8.65188C35.8105 8.92267 35.5085 9.08581 35.1848 9.08581L34.7355 9.08581C34.4936 9.08581 34.2528 9.05315 34.0196 8.98871C33.7096 8.90304 33.4387 8.71306 33.2525 8.45082L32.5941 7.52363" stroke="black"/>
</svg>
