<svg width="24" height="55" viewBox="0 0 24 55" fill="none" xmlns="http://www.w3.org/2000/svg">
<path d="M1.09054 7.69525C1.08868 9.30228 1.64003 10.861 2.65193 12.1094L4.55297 14.4548L9.77895 12.5527L9.53722 9.53352C9.42828 8.1728 8.34838 7.09204 6.98775 6.982L4.62729 6.7911L4.46954 7.4621C4.39952 7.75995 4.18411 8.00244 3.8966 8.10709L3.49751 8.25235C3.28267 8.33054 3.05825 8.37937 2.83034 8.39751C2.52733 8.42163 2.22526 8.34049 1.97512 8.16777L1.0907 7.55711L1.09054 7.69525Z" fill="white"/>
<path d="M6.33237 19.3437L19.7278 53.1137C20.007 53.8176 20.7956 54.1718 21.5073 53.9127L22.3167 53.6181C23.0308 53.3582 23.407 52.5759 23.1642 51.8558L11.5584 17.4416L6.33237 19.3437Z" fill="#F5F5F5"/>
<path d="M4.55297 14.4548L6.33237 19.3437L11.5584 17.4416L9.77895 12.5527L4.55297 14.4548Z" fill="#D9D9D9"/>
<path d="M4.62729 6.7911L1.45314 1.86951L1.0907 7.55711L1.97512 8.16777C2.22526 8.34049 2.52733 8.42163 2.83034 8.39751C3.05825 8.37937 3.28267 8.33054 3.49751 8.25235L3.8966 8.10709C4.18411 8.00244 4.39952 7.75995 4.46954 7.4621L4.62729 6.7911Z" fill="#D9D9D9"/>
<path d="M6.33237 19.3437L19.7278 53.1137C20.007 53.8176 20.7956 54.1718 21.5073 53.9127L22.3167 53.6181C23.0308 53.3582 23.407 52.5759 23.1642 51.8558L11.5584 17.4416M6.33237 19.3437L4.55297 14.4548M6.33237 19.3437L11.5584 17.4416M11.5584 17.4416L9.77895 12.5527M9.77895 12.5527L4.55297 14.4548M9.77895 12.5527L9.53722 9.53352C9.42828 8.1728 8.34838 7.09204 6.98775 6.982L4.62729 6.7911M4.55297 14.4548L2.65193 12.1094C1.64003 10.861 1.08868 9.30228 1.09054 7.69525L1.0907 7.55711M4.62729 6.7911L1.45314 1.86951L1.0907 7.55711M4.62729 6.7911L4.46954 7.4621C4.39952 7.75995 4.18411 8.00244 3.8966 8.10709L3.49751 8.25235C3.28267 8.33054 3.05825 8.37937 2.83034 8.39751C2.52733 8.42163 2.22526 8.34049 1.97512 8.16777L1.0907 7.55711" stroke="#383737"/>
</svg>
